<svg width="298" height="34" viewBox="0 0 298 34" fill="none" xmlns="http://www.w3.org/2000/svg">
<path fill-rule="evenodd" clip-rule="evenodd" d="M29.3957 9.01117C33.6879 13.4563 31.4426 15.9733 30.0127 21.464C28.5106 27.2332 28.9783 28.9877 22.8089 30.536C20.6371 31.0809 18.4983 31.7591 16.36 32.4416C10.864 34.2034 10.0054 31.5517 6.48304 27.9073C5.51979 26.9106 4.53021 25.9281 3.54208 24.9576C-0.573869 20.9271 1.22681 18.7881 2.59619 13.6925C2.96847 12.3074 3.31241 10.901 3.6468 9.50635C5.00432 3.81196 7.35807 4.30339 12.1657 2.88663C13.6354 2.4536 15.1057 1.99554 16.5677 1.53345C22.1511 -0.23837 23.1453 2.66939 26.7452 6.3451C27.622 7.24051 28.5071 8.12814 29.3952 9.01146L29.3957 9.01117Z" stroke="white" stroke-width="1.5" stroke-miterlimit="2.61313"/>
<path fill-rule="evenodd" clip-rule="evenodd" d="M16.8913 8.13209L18.1137 8.47592L18.7825 5.99313C18.8354 5.7969 19.0058 5.67203 19.1611 5.71576L19.8354 5.90538C19.9908 5.94911 20.0746 6.14563 20.022 6.34186L19.3532 8.82465L20.5757 9.16848C20.9132 9.26343 21.0955 9.69013 20.9806 10.1165L16.8797 25.3399C16.7649 25.7663 16.3946 26.0373 16.057 25.9424L14.8346 25.5985L14.1797 28.0298C14.1276 28.2229 13.9602 28.3455 13.8074 28.3026L13.1236 28.1101C12.9709 28.0672 12.8884 27.8742 12.9405 27.6811L13.5954 25.2495L12.373 24.9057C12.0354 24.8107 11.8532 24.3843 11.968 23.9576L16.0689 8.7343C16.1837 8.30789 16.554 8.03657 16.8916 8.1318L16.8913 8.13209Z" fill="#79DA7E"/>
<path d="M142.457 11.4443C143.646 11.4443 144.686 11.7241 145.574 12.2832C146.462 12.8423 147.146 13.6041 147.626 14.5684C148.107 15.5328 148.347 16.6389 148.347 17.8867C148.363 19.1186 148.124 20.2172 147.626 21.1816C147.129 22.1461 146.441 22.9039 145.561 23.4551C144.681 24.0063 143.638 24.2812 142.432 24.2812C141.39 24.2812 140.473 24.0588 139.683 23.6133C138.893 23.1675 138.286 22.5389 137.862 21.7285V29.3389H136.175L136.174 11.7354H137.714L137.884 13.9092C138.142 13.4862 138.477 13.0902 138.888 12.7207C139.312 12.3397 139.817 12.0318 140.404 11.7969C140.99 11.5621 141.674 11.4444 142.457 11.4443ZM101.39 11.4443C102.596 11.4443 103.631 11.7123 104.495 12.2471C105.358 12.7819 106.027 13.4907 106.5 14.374C106.972 15.2573 107.208 16.2342 107.208 17.3037C107.208 17.4656 107.204 17.64 107.196 17.8262C107.188 18.0124 107.175 18.2196 107.159 18.4463H97.7095C97.749 19.1961 97.9126 19.8402 98.2007 20.3789C98.5349 21.003 98.9789 21.4727 99.5327 21.7891C100.087 22.105 100.69 22.2636 101.341 22.2637C102.123 22.2637 102.768 22.0933 103.273 21.7529C103.778 21.4127 104.152 20.9507 104.397 20.3672H106.841C106.63 21.1128 106.271 21.7815 105.766 22.373C105.261 22.9646 104.637 23.4299 103.896 23.7705C103.155 24.1108 102.304 24.2812 101.342 24.2812H101.341C100.168 24.2812 99.1258 24.0132 98.2134 23.4785C97.3009 22.9438 96.5879 22.1983 96.0747 21.2422C95.5615 20.2859 95.3042 19.1752 95.3042 17.9111C95.3042 16.6146 95.5615 15.4837 96.0747 14.5195C96.5879 13.5552 97.301 12.8017 98.2134 12.2588C99.1257 11.7159 100.185 11.4444 101.39 11.4443ZM169.249 11.4443C170.405 11.4443 171.433 11.7078 172.329 12.2344C173.225 12.7613 173.938 13.4992 174.467 14.4473C174.997 15.3955 175.261 16.5338 175.261 17.8623C175.245 19.1588 174.972 20.2898 174.443 21.2539C173.913 22.2183 173.2 22.9646 172.304 23.4912C171.408 24.0181 170.373 24.2812 169.2 24.2812C168.076 24.2812 167.057 24.0178 166.144 23.4912C165.232 22.9646 164.511 22.2148 163.981 21.2422C163.451 20.2698 163.187 19.1428 163.187 17.8623C163.203 16.5498 163.476 15.4151 164.005 14.459C164.535 13.5028 165.256 12.7613 166.168 12.2344C167.081 11.7078 168.108 11.4444 169.249 11.4443ZM68.145 11.4434C69.5139 11.4434 70.6139 11.7679 71.4448 12.416C72.2757 13.0645 72.7647 13.9799 72.9116 15.1631H70.5405C70.4755 14.6119 70.2309 14.1866 69.8071 13.8867C69.3834 13.5868 68.8214 13.4365 68.1206 13.4365C67.4199 13.4365 66.8821 13.574 66.5073 13.8496C66.1325 14.1252 65.9458 14.4904 65.9458 14.9443C65.9458 15.2359 66.0516 15.4951 66.2632 15.7217C66.4748 15.9486 66.7884 16.1392 67.2036 16.293C67.6191 16.447 68.1289 16.589 68.7319 16.7188C69.5955 16.8807 70.3699 17.0831 71.0542 17.3262C71.7384 17.5693 72.2844 17.9264 72.6919 18.3965C73.0992 18.8665 73.3022 19.5389 73.3022 20.4141C73.3184 21.1759 73.1273 21.8492 72.728 22.4326C72.3288 23.0158 71.7666 23.4698 71.0415 23.7939C70.3167 24.1181 69.4572 24.2802 68.4634 24.2803L68.0786 24.2725C67.1946 24.2352 66.4103 24.0682 65.7261 23.7705C64.9442 23.4303 64.325 22.9517 63.8687 22.3359C63.4123 21.7201 63.1354 20.9983 63.0376 20.1719H65.5308C65.6123 20.5607 65.7712 20.9174 66.0073 21.2412C66.2435 21.5654 66.5694 21.8251 66.9849 22.0195C67.4002 22.2139 67.8932 22.3105 68.4634 22.3105C69.001 22.3105 69.4453 22.2341 69.7954 22.0801C70.1456 21.9261 70.4021 21.7154 70.5649 21.4482C70.7278 21.1809 70.81 20.8928 70.8101 20.585C70.8101 20.1311 70.6998 19.7869 70.48 19.5518C70.26 19.3169 69.9334 19.1298 69.5015 18.9922C69.0696 18.8546 68.5525 18.7285 67.9497 18.6152C67.3794 18.518 66.829 18.385 66.2993 18.2148C65.7698 18.0447 65.2977 17.8294 64.8823 17.5703C64.4669 17.3112 64.1365 16.983 63.8921 16.5859C63.6477 16.1888 63.5259 15.698 63.5259 15.1143C63.5259 14.4174 63.7127 13.7894 64.0874 13.2305C64.4622 12.6713 64.9964 12.233 65.689 11.917C66.3814 11.6011 67.2 11.4434 68.145 11.4434ZM125.623 6.67773C127.317 6.67773 128.788 7.05118 130.035 7.79688C131.281 8.54257 132.243 9.57556 132.919 10.8965C133.596 12.2173 133.934 13.7451 133.934 15.4795C133.934 17.23 133.591 18.766 132.907 20.0869C132.223 21.4076 131.261 22.4364 130.023 23.1738C128.784 23.9113 127.317 24.2803 125.623 24.2803C124.009 24.2802 122.584 23.9113 121.345 23.1738C120.107 22.4364 119.141 21.4077 118.449 20.0869C117.756 18.766 117.41 17.23 117.41 15.4795C117.426 13.745 117.777 12.2174 118.461 10.8965C119.146 9.57565 120.107 8.54226 121.345 7.79688C122.584 7.05123 124.009 6.67779 125.623 6.67773ZM93.0874 23.9893H90.9116L90.6919 22.0684L90.6675 22.0928C90.4231 22.4655 90.1047 22.8173 89.7134 23.1494C89.3225 23.4817 88.8503 23.7533 88.2964 23.9639C87.7422 24.1744 87.1062 24.2793 86.3892 24.2793C85.2163 24.2792 84.1815 24.0004 83.2856 23.4414C82.3894 22.8823 81.6928 22.1207 81.1958 21.1562C80.6988 20.1918 80.4507 19.0932 80.4507 17.8613C80.4345 16.6134 80.6782 15.5109 81.1831 14.5547C81.6883 13.5987 82.3931 12.8413 83.2974 12.2822C84.2016 11.7231 85.2414 11.4434 86.4146 11.4434C87.3758 11.4434 88.2234 11.6339 88.9565 12.0146C89.6896 12.3957 90.26 12.9349 90.6675 13.6318V6.4834H93.1118L93.0874 23.9893ZM47.311 23.9893H44.8423L44.8667 6.96973H47.311V23.9893ZM56.519 11.4434C57.4964 11.4434 58.3359 11.6384 59.0366 12.0273C59.7372 12.4163 60.2834 13.0041 60.6743 13.79C61.0652 14.576 61.2602 15.5606 61.2603 16.7432V23.9893H58.8159V16.9863C58.8159 15.8519 58.564 14.9925 58.0591 14.4092C57.5538 13.8258 56.8202 13.5342 55.8589 13.5342C55.2235 13.5342 54.6532 13.6845 54.1479 13.9844C53.6427 14.2843 53.2392 14.7258 52.938 15.3096C52.6365 15.893 52.4858 16.6063 52.4858 17.4492V23.9893H50.0415V11.7354H52.2407L52.3872 13.8262C52.7782 13.0969 53.3333 12.5176 54.0503 12.0879C54.7672 11.6586 55.5904 11.4434 56.519 11.4434ZM78.1597 23.9893H75.6665L75.7163 11.7354H78.1353L78.1597 23.9893ZM116.318 14.0205H115.438C114.933 14.0205 114.452 14.0816 113.996 14.2031C113.539 14.3247 113.136 14.5316 112.786 14.8232C112.435 15.1149 112.163 15.5117 111.967 16.0137C111.772 16.5162 111.673 17.1402 111.673 17.8857V23.9893H109.23V11.7354H111.429L111.649 14.0449C111.926 13.494 112.285 13.0275 112.725 12.6465C113.165 12.2656 113.682 11.9703 114.277 11.7598C114.872 11.5492 115.552 11.4434 116.318 11.4434V14.0205ZM153.155 8.89062L153.179 11.7354H156.822L156.871 13.1943H153.13V20.4629C153.13 21.2732 153.298 21.8171 153.631 22.0928C153.966 22.3684 154.54 22.5142 155.355 22.5303L156.675 22.5059L156.626 23.9893H154.818C154.101 23.9893 153.489 23.8789 152.984 23.6602C152.479 23.4414 152.092 23.0729 151.823 22.5547C151.554 22.036 151.427 21.338 151.444 20.4629L151.395 13.2178L149.293 13.1699L149.269 11.7354H151.419L151.665 8.8418L153.155 8.89062ZM160.774 23.9893H159.014L159.063 11.7354H160.774V23.9893ZM183.321 11.4434C184.266 11.4434 185.089 11.6301 185.79 12.0029C186.49 12.3758 187.036 12.9389 187.427 13.6924C187.818 14.4459 188.013 15.4065 188.013 16.5732V23.9893H186.302V16.7676C186.302 15.4711 186.017 14.507 185.447 13.875C184.876 13.243 184.062 12.9268 183.002 12.9268C182.286 12.9268 181.638 13.1009 181.06 13.4492C180.482 13.7977 180.025 14.3043 179.691 14.9688C179.357 15.6333 179.19 16.4524 179.19 17.4248V23.9893H177.479V11.7354H179.043L179.141 13.9238C179.532 13.146 180.098 12.5372 180.839 12.0996C181.581 11.662 182.408 11.4434 183.321 11.4434ZM169.249 12.9023C168.499 12.9349 167.802 13.1334 167.159 13.498C166.515 13.8627 165.994 14.4101 165.594 15.1396C165.195 15.8689 164.987 16.7764 164.971 17.8623C164.987 18.9322 165.191 19.8357 165.583 20.5732C165.974 21.3107 166.487 21.8664 167.123 22.2393C167.758 22.6119 168.45 22.8062 169.2 22.8223C169.966 22.8062 170.67 22.6156 171.314 22.251C171.958 21.8863 172.475 21.3307 172.867 20.585C173.258 19.8394 173.453 18.9317 173.453 17.8623C173.469 16.7603 173.282 15.8445 172.891 15.1152C172.5 14.3859 171.982 13.8431 171.338 13.4863C170.695 13.1296 169.998 12.9346 169.249 12.9023ZM142.31 12.9268C141.463 12.9268 140.709 13.1301 140.049 13.5352C139.389 13.9402 138.876 14.5115 138.509 15.249C138.143 15.9865 137.959 16.8575 137.959 17.8623C137.959 18.8511 138.143 19.7182 138.509 20.4639C138.876 21.2095 139.389 21.7851 140.049 22.1904C140.709 22.5956 141.463 22.7979 142.31 22.7979C143.157 22.7978 143.903 22.5954 144.546 22.1904C145.19 21.7851 145.7 21.2131 146.075 20.4756C146.449 19.7382 146.636 18.867 146.636 17.8623C146.636 16.8736 146.45 16.0064 146.075 15.2607C145.7 14.5151 145.19 13.9405 144.546 13.5352C143.903 13.1298 143.157 12.9268 142.31 12.9268ZM125.647 8.23438C124.376 8.20192 123.251 8.47717 122.274 9.06055C121.296 9.64397 120.543 10.4833 120.013 11.5771C119.483 12.6711 119.219 13.972 119.219 15.4795C119.187 17.0031 119.443 18.3123 119.989 19.4062C120.535 20.5002 121.296 21.3385 122.274 21.9219C123.251 22.5053 124.376 22.7815 125.647 22.749C126.95 22.7815 128.091 22.5017 129.069 21.9102C130.047 21.3185 130.801 20.4758 131.331 19.3818C131.86 18.2879 132.133 16.9867 132.149 15.4795C132.133 13.972 131.856 12.6714 131.318 11.5771C130.78 10.483 130.027 9.64395 129.057 9.06055C128.088 8.47715 126.95 8.20186 125.647 8.23438ZM86.7808 13.5342C86.0477 13.5503 85.3877 13.7365 84.8013 14.0928C84.2147 14.4495 83.7536 14.9521 83.4194 15.6006C83.0853 16.2489 82.9185 17.0025 82.9185 17.8613C82.9346 18.7204 83.1062 19.4746 83.4321 20.123C83.7581 20.7713 84.2101 21.2777 84.7886 21.6426C85.3672 22.0072 86.0311 22.1814 86.7808 22.165C87.5466 22.1811 88.2235 22.0072 88.8101 21.6426C89.3964 21.278 89.8523 20.7712 90.1782 20.123C90.5042 19.4746 90.6675 18.7204 90.6675 17.8613C90.6513 17.0024 90.4842 16.2525 90.1665 15.6123C89.8488 14.9722 89.3967 14.4656 88.8101 14.0928C88.2235 13.7199 87.5466 13.5342 86.7808 13.5342ZM101.366 13.4619C100.698 13.462 100.087 13.6122 99.5327 13.9121C98.9787 14.212 98.5345 14.6492 98.2007 15.2246C97.9574 15.6433 97.8039 16.1419 97.7378 16.7197H104.763C104.714 15.6985 104.372 14.9007 103.737 14.3252C103.101 13.7497 102.311 13.4619 101.366 13.4619ZM76.938 6.33789C77.3943 6.33792 77.7767 6.48021 78.0864 6.76367C78.3962 7.04718 78.5513 7.40782 78.5513 7.8457C78.5512 8.29924 78.3958 8.67222 78.0864 8.96387C77.7767 9.25536 77.3859 9.40965 76.9136 9.42578C76.4575 9.40968 76.0781 9.25554 75.7769 8.96387C75.4754 8.67222 75.3248 8.29924 75.3247 7.8457C75.3247 7.40824 75.4755 7.04745 75.7769 6.76367C76.0784 6.48016 76.4657 6.33789 76.938 6.33789ZM160.039 6.3623C160.316 6.37561 160.565 6.48491 160.786 6.69043C161.007 6.89606 161.125 7.14843 161.14 7.44727V7.70898C161.126 8.00855 161.012 8.26488 160.798 8.47754C160.554 8.72053 160.252 8.85008 159.894 8.86621L159.768 8.84961C159.479 8.79905 159.228 8.67043 159.014 8.46484C158.77 8.23004 158.647 7.94269 158.647 7.60254C158.663 7.22981 158.79 6.92559 159.026 6.69043C159.232 6.48494 159.486 6.37556 159.787 6.3623H160.039Z" fill="white"/>
<line x1="198.513" y1="6" x2="198.513" y2="28" stroke="white"/>
<path d="M225.743 1.32903C224.645 2.77669 222.863 4.92769 221.409 6.57089C219.053 9.22652 215.609 12.7495 213.111 15.055C212.692 15.4461 209.945 17.8904 208.901 18.8082C208.27 19.3602 207.513 20.0635 207.513 20.095C207.513 20.1108 207.665 20.3316 207.851 20.5839C208.04 20.8362 208.201 21.057 208.21 21.0728C208.223 21.0917 208.428 21.0538 208.731 20.975C210.055 20.6312 211.402 20.3947 212.796 20.259C213.48 20.1897 215.3 20.1613 215.792 20.2086C216.246 20.2527 216.795 20.3347 216.846 20.3663C216.871 20.3852 216.776 20.6533 216.524 21.2872C215.08 24.8796 213.474 29.4497 212.73 32.0958L212.619 32.4869L212.787 32.6667C212.878 32.7645 212.976 32.8401 213.001 32.837C213.026 32.8338 213.263 32.8023 213.521 32.7676C214.436 32.6446 214.767 32.6225 215.808 32.6225C216.707 32.6257 216.887 32.6351 217.275 32.6951C217.518 32.7329 217.795 32.7834 217.896 32.8086L218.073 32.8496L218.256 32.7329L218.438 32.6162L218.571 31.9728C218.921 30.2854 219.388 28.3237 219.927 26.2736C220.268 24.9805 221.378 20.9056 221.394 20.893C221.4 20.8898 221.577 20.9024 221.785 20.9245C221.993 20.9466 222.532 20.9813 222.983 21.0002C224.264 21.0538 225.431 20.975 226.068 20.7921C226.115 20.7763 226.121 20.7195 226.121 20.1644V19.5526L225.995 19.4359C225.765 19.2245 225.809 19.2309 225.235 19.3129C224.434 19.4296 223.892 19.4863 223.595 19.4863C223.15 19.4863 221.902 19.3444 221.845 19.2876C221.826 19.2719 222.22 17.8305 222.668 16.2535C223.125 14.6545 224.828 8.92374 225.081 8.14787C225.163 7.88609 225.702 6.23658 226.279 4.47667C226.853 2.71677 227.311 1.26595 227.298 1.25333C227.266 1.22179 226.194 0.846474 226.144 0.849628C226.121 0.849628 225.942 1.0641 225.743 1.32903ZM221.772 8.64304C221.741 8.71873 221.334 9.64284 220.87 10.7026C218.855 15.3042 218.385 16.4081 218.095 17.2312C217.864 17.881 217.505 18.8114 217.47 18.8461C217.467 18.8492 217.287 18.824 217.073 18.7925C216.136 18.6474 215.71 18.619 214.483 18.619C213.307 18.619 212.824 18.6474 211.711 18.7767C211.509 18.7988 211.342 18.8145 211.339 18.8114C211.336 18.8082 211.831 18.3446 212.44 17.7832C213.052 17.2186 213.897 16.4301 214.326 16.0327C214.751 15.6322 215.439 14.9951 215.855 14.6135C217.133 13.4434 218.101 12.4499 221.501 8.82281C221.655 8.65566 221.794 8.51688 221.807 8.51373C221.82 8.51373 221.804 8.5705 221.772 8.64304Z" fill="white"/>
<path d="M231.451 24.7645L233.914 20.8174H233.484L231.763 14.0213H233.321L234.701 19.6155L238.084 14.0213H239.642L233.009 24.7645H231.451ZM242.783 21.6781C242.14 21.6781 241.581 21.5396 241.106 21.2626C240.641 20.9856 240.285 20.5948 240.038 20.0903C239.8 19.5858 239.702 18.9972 239.741 18.3245C239.761 17.6914 239.885 17.1077 240.112 16.5735C240.35 16.0295 240.661 15.5546 241.047 15.149C241.443 14.7434 241.903 14.4269 242.427 14.1993C242.951 13.9619 243.525 13.8432 244.148 13.8432C244.821 13.8432 245.385 13.9817 245.84 14.2587C246.295 14.5357 246.626 14.9067 246.834 15.3716C247.052 15.8365 247.146 16.3559 247.116 16.9297C247.116 17.1077 247.096 17.3056 247.057 17.5232C247.027 17.7409 246.987 17.9387 246.938 18.1168H240.839L241.017 17.0632H245.662C245.711 16.6378 245.667 16.2817 245.528 15.9948C245.4 15.6981 245.197 15.4705 244.92 15.3122C244.653 15.154 244.331 15.0748 243.955 15.0748C243.55 15.0748 243.164 15.1688 242.798 15.3568C242.432 15.5348 242.115 15.8019 241.848 16.1581C241.581 16.5043 241.398 16.9445 241.299 17.4787L241.225 17.8942C241.136 18.3987 241.151 18.8439 241.27 19.2297C241.388 19.6155 241.596 19.9172 241.893 20.1348C242.19 20.3426 242.556 20.4464 242.991 20.4464C243.466 20.4464 243.876 20.3426 244.222 20.1348C244.569 19.9172 244.846 19.6353 245.053 19.289H246.537C246.32 19.7441 246.028 20.1546 245.662 20.5206C245.296 20.8768 244.87 21.1587 244.386 21.3665C243.901 21.5742 243.367 21.6781 242.783 21.6781ZM250.441 21.6781C249.877 21.6781 249.417 21.5841 249.061 21.3961C248.705 21.2082 248.448 20.9559 248.289 20.6394C248.131 20.3228 248.062 19.9766 248.082 19.6006C248.101 19.0763 248.265 18.6213 248.571 18.2355C248.878 17.8497 249.298 17.5529 249.833 17.3452C250.377 17.1374 251.005 17.0335 251.717 17.0335H253.646C253.725 16.5983 253.725 16.2372 253.646 15.9503C253.577 15.6535 253.429 15.4359 253.201 15.2974C252.973 15.1589 252.667 15.0897 252.281 15.0897C251.836 15.0897 251.435 15.1985 251.079 15.4161C250.723 15.6239 250.471 15.9355 250.322 16.351H248.824C248.982 15.8267 249.239 15.3815 249.595 15.0155C249.961 14.6396 250.392 14.3527 250.886 14.1548C251.391 13.9471 251.925 13.8432 252.489 13.8432C253.171 13.8432 253.73 13.9669 254.166 14.2142C254.601 14.4615 254.903 14.8127 255.071 15.2677C255.239 15.7129 255.269 16.2471 255.16 16.8703L254.358 21.5H253.023L253.142 20.2387C253.003 20.4366 252.845 20.6245 252.667 20.8026C252.489 20.9806 252.286 21.1389 252.058 21.2774C251.831 21.406 251.584 21.5049 251.316 21.5742C251.049 21.6434 250.758 21.6781 250.441 21.6781ZM250.916 20.4761C251.232 20.4761 251.534 20.4118 251.821 20.2832C252.118 20.1546 252.38 19.9815 252.607 19.7639C252.835 19.5363 253.018 19.2841 253.156 19.0071C253.305 18.7301 253.394 18.4383 253.424 18.1316L253.438 18.0871H251.673C251.267 18.0871 250.911 18.1415 250.604 18.2503C250.307 18.3591 250.08 18.5174 249.922 18.7252C249.763 18.923 249.679 19.1604 249.669 19.4374C249.659 19.7639 249.763 20.0211 249.981 20.209C250.199 20.3871 250.51 20.4761 250.916 20.4761ZM256.413 21.5L257.718 14.0213H259.054L258.95 15.3716C259.178 15.0451 259.445 14.7731 259.751 14.5555C260.058 14.3279 260.404 14.1548 260.79 14.0361C261.186 13.9075 261.606 13.8432 262.051 13.8432L261.784 15.4161H261.265C260.938 15.4161 260.632 15.4507 260.345 15.52C260.058 15.5892 259.796 15.7129 259.558 15.891C259.321 16.0591 259.113 16.2817 258.935 16.5587C258.767 16.8357 258.648 17.1869 258.579 17.6123L257.896 21.5H256.413ZM265.001 21.6781C264.339 21.6781 263.785 21.5692 263.339 21.3516C262.894 21.134 262.568 20.8323 262.36 20.4464C262.152 20.0507 262.068 19.5957 262.108 19.0813H263.592C263.592 19.3385 263.641 19.571 263.74 19.7787C263.849 19.9864 264.022 20.1546 264.259 20.2832C264.497 20.4118 264.808 20.4761 265.194 20.4761C265.521 20.4761 265.803 20.4267 266.04 20.3277C266.278 20.2288 266.461 20.0953 266.589 19.9271C266.728 19.749 266.802 19.5413 266.812 19.3039C266.822 19.0763 266.767 18.8983 266.648 18.7697C266.53 18.6312 266.352 18.5224 266.114 18.4432C265.887 18.3641 265.615 18.2948 265.298 18.2355C264.982 18.1761 264.675 18.097 264.378 17.9981C264.081 17.8892 263.819 17.7557 263.592 17.5974C263.374 17.4391 263.201 17.2462 263.072 17.0187C262.954 16.7912 262.904 16.5191 262.924 16.2026C262.944 15.7475 263.087 15.3469 263.354 15.0006C263.631 14.6445 264.002 14.3626 264.467 14.1548C264.942 13.9471 265.476 13.8432 266.07 13.8432C266.901 13.8432 267.549 14.046 268.014 14.4516C268.489 14.8473 268.706 15.4013 268.667 16.1135H267.227C267.237 15.7871 267.123 15.5299 266.886 15.3419C266.648 15.154 266.317 15.06 265.892 15.06C265.466 15.06 265.115 15.154 264.838 15.3419C264.571 15.52 264.433 15.7475 264.423 16.0245C264.413 16.2125 264.462 16.3757 264.571 16.5142C264.69 16.6428 264.863 16.7516 265.09 16.8406C265.328 16.9198 265.615 16.994 265.951 17.0632C266.297 17.1325 266.619 17.2215 266.916 17.3303C267.212 17.4292 267.47 17.5578 267.687 17.7161C267.915 17.8645 268.083 18.0574 268.192 18.2948C268.31 18.5224 268.36 18.8043 268.34 19.1406C268.32 19.6551 268.162 20.1052 267.865 20.491C267.568 20.8669 267.173 21.1587 266.678 21.3665C266.184 21.5742 265.625 21.6781 265.001 21.6781Z" fill="white"/>
<path d="M272.798 28.6889H296.925V4.56184H272.798V28.6889Z" fill="black"/>
</svg>
