<svg width="22" height="22" viewBox="0 0 22 22" fill="none" xmlns="http://www.w3.org/2000/svg">
<path  fill-rule="evenodd" clip-rule="evenodd" d="M17.6908 13.7089C19.9804 13.7089 21.8403 15.5648 21.8403 17.8583C21.8403 20.148 19.9843 22.0078 17.6908 22.0078C15.4012 22.0078 13.5413 20.1519 13.5413 17.8583C13.5413 15.5687 15.3973 13.7089 17.6908 13.7089ZM5.6331 13.1736C1.60866 15.4163 0.174704 13.7948 0.178611 19.6361C0.182518 22.3673 -0.415288 21.6444 4.80867 21.7421C7.7391 21.7968 10.8063 21.7695 13.7406 21.7421C13.6234 21.4803 13.2444 21.2772 12.7208 20.3043C11.154 17.3777 12.5567 15.3304 14.5494 13.3963C14.2798 13.283 13.3733 12.9587 13.217 12.7828C13.0099 12.775 12.8068 12.7281 12.5528 12.7242C12.4707 12.8532 12.3496 13.0017 12.2558 13.1032C12.2598 13.283 11.3416 15.8188 11.2361 15.9633C10.8688 14.9904 11.3924 15.178 11.4158 14.4473C11.4392 13.7167 10.5171 13.912 9.88416 13.9003C9.29417 13.8925 8.31736 13.7167 8.29001 14.3887C8.27829 14.6427 8.47365 14.9435 8.56743 15.1858C8.7159 15.5687 8.57915 15.5921 8.50882 15.936C8.35253 15.7758 8.30174 15.5726 8.2275 15.3499C8.15326 15.1272 8.09856 14.9553 8.01651 14.7482C7.68049 13.9042 7.49685 12.7125 6.91467 12.7125C6.77792 12.7125 5.80893 13.0798 5.63701 13.1775L5.6331 13.1736ZM4.90245 4.8629C4.99231 5.19501 5.37132 5.74593 5.00794 6.01553C4.4961 6.63678 4.41014 6.78916 4.55861 7.85974L4.70318 8.3247C4.91026 8.99284 5.57058 9.49296 5.56668 9.48905C6.31296 9.71567 6.11369 9.64144 6.48097 10.2744C7.29367 11.6732 7.85631 12.4468 9.70443 12.564C10.6265 12.6227 11.6112 12.3296 12.2324 11.6693C12.9318 11.1223 13.0998 9.82898 13.9203 9.5672C14.5572 9.36402 15.0222 8.62165 15.155 7.79722L15.2019 6.87121C15.0573 6.50784 15.0925 6.39062 14.819 6.13275C14.6314 5.95692 14.6158 6.04679 14.5728 5.81626C14.3384 4.60893 14.5767 3.95642 14.2329 2.55373C13.4554 -0.153982 8.81749 -0.837747 7.26241 1.16275C6.68024 1.91294 7.05533 1.6199 6.46925 1.76447C5.15642 2.08486 4.57033 3.64384 4.89854 4.8668L4.90245 4.8629ZM19.1521 18.5695C19.1638 18.7609 19.1443 18.9328 19.0896 19.0891C19.031 19.2454 18.945 19.3822 18.8317 19.5033C18.7145 19.6205 18.5738 19.7221 18.4058 19.8002C18.2378 19.8784 18.0464 19.9331 17.8393 19.9643L17.8197 20.6754C17.8197 20.695 17.8158 20.7067 17.808 20.7223C17.8002 20.738 17.7885 20.7497 17.7689 20.7575C17.7494 20.7653 17.7221 20.777 17.6869 20.7848C17.6517 20.7927 17.6048 20.7966 17.5501 20.8005C17.4798 20.8044 17.4251 20.8044 17.3821 20.8005C17.3392 20.7966 17.304 20.7888 17.2805 20.7809C17.2532 20.7692 17.2376 20.7575 17.2297 20.738C17.2219 20.7184 17.218 20.695 17.2219 20.6715L17.2454 19.9956C17.1516 19.9878 17.0617 19.98 16.9758 19.9643C16.8898 19.9487 16.8117 19.9331 16.7453 19.9135C16.6749 19.894 16.6163 19.8706 16.5616 19.851C16.5108 19.8276 16.4717 19.8041 16.4444 19.7807C16.417 19.7572 16.3975 19.7221 16.3819 19.6713C16.3663 19.6244 16.3545 19.5502 16.3506 19.4525C16.3467 19.3782 16.3428 19.3157 16.3428 19.2688C16.3428 19.222 16.3506 19.1829 16.3584 19.1555C16.3663 19.1282 16.3819 19.1086 16.3975 19.0969C16.4131 19.0852 16.4327 19.0813 16.4522 19.0774C16.4796 19.0735 16.5225 19.0891 16.5812 19.1165C16.6398 19.1438 16.7101 19.179 16.8 19.2102C16.8898 19.2454 16.9953 19.2728 17.1203 19.2962C17.2454 19.3196 17.3899 19.3275 17.5541 19.3157C17.8119 19.2962 17.9995 19.2376 18.1167 19.1321C18.2339 19.0266 18.2886 18.8938 18.2769 18.7375C18.2691 18.632 18.2378 18.546 18.1792 18.4835C18.1206 18.4171 18.0464 18.3624 17.9526 18.3194C17.8588 18.2725 17.7533 18.2334 17.64 18.2022C17.5228 18.167 17.4056 18.1357 17.2845 18.0967C17.1633 18.0576 17.0422 18.0146 16.925 17.9599C16.8078 17.9052 16.7023 17.8388 16.6046 17.7528C16.5069 17.6708 16.4288 17.5653 16.3663 17.4403C16.3037 17.3152 16.2647 17.1628 16.2529 16.9792C16.2412 16.8151 16.2569 16.6627 16.3037 16.5221C16.3506 16.3814 16.421 16.2603 16.5186 16.1509C16.6163 16.0415 16.7374 15.9516 16.882 15.8774C17.0305 15.8031 17.1985 15.7484 17.386 15.7133L17.4056 15.0451C17.4056 15.0256 17.4095 15.0139 17.4173 14.9982C17.4251 14.9865 17.4368 14.9748 17.4564 14.9631C17.4759 14.9514 17.5033 14.9435 17.5384 14.9357C17.5736 14.9279 17.6205 14.924 17.6752 14.9201C17.7416 14.9162 17.8002 14.9162 17.8432 14.9201C17.8901 14.924 17.9252 14.9318 17.9487 14.9396C17.976 14.9475 17.9917 14.9631 17.9995 14.9826C18.0073 15.0022 18.0112 15.0217 18.0151 15.049L17.9917 15.6781C18.0542 15.682 18.1206 15.6898 18.187 15.7015C18.2574 15.7133 18.3199 15.7289 18.3824 15.7445C18.441 15.7602 18.4996 15.7797 18.5465 15.7992C18.5973 15.8188 18.6324 15.8383 18.652 15.8539C18.6715 15.8735 18.6871 15.8891 18.6989 15.9086C18.7106 15.9243 18.7184 15.9477 18.7262 15.9751C18.734 16.0024 18.7379 16.0337 18.7458 16.0727C18.7497 16.1118 18.7536 16.1548 18.7575 16.2056C18.7614 16.2759 18.7653 16.3306 18.7653 16.3736C18.7653 16.4166 18.7614 16.4517 18.7536 16.4752C18.7458 16.4986 18.7379 16.5142 18.7262 16.5221C18.7145 16.5299 18.7028 16.5338 18.6871 16.5377C18.6598 16.5377 18.6168 16.5299 18.5582 16.5025C18.4996 16.4791 18.4332 16.4517 18.3511 16.4244C18.2691 16.397 18.1753 16.3736 18.0659 16.3501C17.9604 16.3306 17.8432 16.3228 17.7182 16.3306C17.6048 16.3384 17.5072 16.358 17.429 16.3853C17.347 16.4127 17.2845 16.4478 17.2376 16.4908C17.1907 16.5338 17.1555 16.5846 17.136 16.6393C17.1164 16.6979 17.1086 16.7565 17.1125 16.8229C17.1203 16.9245 17.1516 17.0105 17.2141 17.0769C17.2727 17.1433 17.3509 17.198 17.4446 17.2449C17.5384 17.2879 17.6478 17.327 17.765 17.3621C17.8823 17.3973 18.0034 17.4324 18.1245 17.4676C18.2495 17.5067 18.3707 17.5497 18.4879 17.6044C18.6051 17.6552 18.7145 17.7255 18.8122 17.8075C18.9099 17.8896 18.988 17.9912 19.0505 18.1162C19.113 18.2412 19.1521 18.3897 19.1638 18.5655L19.1521 18.5695Z" fill="currentColor"/>
</svg>
