<svg width="30" height="30" viewBox="0 0 30 30" fill="none" xmlns="http://www.w3.org/2000/svg">
<path d="M21.9282 15.9773C21.9282 16.2303 21.8277 16.4729 21.6488 16.6518C21.4699 16.8306 21.2273 16.9311 20.9744 16.9311C20.7214 16.9311 20.4788 16.8306 20.2999 16.6518C20.121 16.4729 20.0205 16.2303 20.0205 15.9773C20.0205 15.7243 20.121 15.4817 20.2999 15.3028C20.4788 15.1239 20.7214 15.0234 20.9744 15.0234C21.2273 15.0234 21.4699 15.1239 21.6488 15.3028C21.8277 15.4817 21.9282 15.7243 21.9282 15.9773Z" fill="currentColor"/>
<path d="M24.9998 18.4163C24.9277 18.4224 24.8553 18.4255 24.7829 18.4255H20.5609C20.2498 18.4262 19.9415 18.3656 19.6538 18.2471C19.3661 18.1287 19.1046 17.9548 18.8841 17.7352C18.6636 17.5157 18.4885 17.2549 18.3688 16.9677C18.2491 16.6805 18.1872 16.3726 18.1865 16.0614V15.7845C18.1859 15.4734 18.2465 15.1652 18.3649 14.8775C18.4834 14.5898 18.6573 14.3282 18.8768 14.1077C19.0964 13.8872 19.3572 13.7122 19.6444 13.5925C19.9315 13.4728 20.2395 13.4108 20.5506 13.4102H24.7829C24.8564 13.4102 24.9287 13.4136 24.9998 13.4204" stroke="currentColor" stroke-width="1.55" stroke-linecap="round" stroke-linejoin="round"/>
<path d="M5.29744 8.97713H24.4066C24.7348 8.97713 25 9.24226 25 9.57098V23.3074C25 23.6356 24.7353 23.9007 24.4066 23.9007H5.59333C5.51555 23.9008 5.4385 23.8856 5.36659 23.856C5.29467 23.8264 5.2293 23.7828 5.17421 23.7279C5.11911 23.673 5.07537 23.6078 5.04548 23.536C5.01559 23.4642 5.00013 23.3872 5 23.3094V9.51816C5 8.88841 5.95692 8.55252 6.70769 8.42483L20.1589 6.13509C21.4554 5.91457 22.5559 6.80688 22.8974 8.07713L23.1282 8.93662" stroke="currentColor" stroke-width="1.55" stroke-linecap="round" stroke-linejoin="round"/>
</svg>
