<svg width="26" height="24" viewBox="0 0 26 24" fill="none" xmlns="http://www.w3.org/2000/svg">
<path fill-rule="evenodd" clip-rule="evenodd" stroke="currentColor" d="M4.36261 16.745C3.51838 16.6832 2.6896 16.3744 2.2469 15.5971C1.87626 14.9484 1.88141 14.13 2.15938 13.4505C2.30867 13.085 2.48369 12.946 2.67416 12.7092C0.527555 10.8869 0.0539644 7.78796 0.903339 5.18835C1.36663 3.77273 2.21601 2.50124 3.39999 1.5901C4.73839 0.555403 6.36508 0.0972552 8.04838 0.122994C9.13455 0.143585 10.1384 0.328903 11.1061 0.83338C11.7959 1.18857 12.4034 1.66731 13.0159 2.13061C14.0455 1.37389 15.1316 0.694391 16.3671 0.328903C18.0144 -0.154983 19.605 0.0406303 21.1545 0.751016C22.8121 1.50773 24.1813 2.84099 24.9123 4.51915C25.3447 5.51266 25.5198 6.59883 25.5043 7.67471C25.4889 8.70425 25.2521 9.75438 24.8248 10.6913C24.5005 11.4068 24.0218 12.1378 23.3989 12.6268C23.4916 13.3063 23.5894 14.0167 23.3937 14.6859C23.0849 15.7309 22.1995 16.0655 21.2163 16.0706C21.0876 17.6561 20.4287 18.2893 18.8483 18.4386C18.8277 19.0821 18.663 19.7358 18.1842 20.1991C17.721 20.647 17.0929 20.7963 16.4701 20.8065C16.4495 21.5787 16.2436 22.3715 15.5486 22.8039C14.8846 23.2157 13.9683 23.1591 13.2115 23.0304C12.6402 23.7665 11.6775 24.1114 10.7715 23.8283C9.70595 23.4988 9.21177 22.5259 9.1294 21.486C8.49109 21.4758 7.84247 21.3316 7.37403 20.8683C6.91073 20.405 6.76145 19.7513 6.74601 19.1181C5.26861 19.0306 4.38835 18.2533 4.37291 16.7398L4.36261 16.745ZM11.2451 20.5955C10.1075 20.9249 10.3288 22.8039 11.729 22.4693C12.9181 22.1861 12.4085 20.2609 11.2451 20.5955ZM4.05889 13.5071C2.63812 14.0682 3.59045 15.7412 4.67662 15.3191C5.77823 14.897 5.22743 13.0438 4.05889 13.5071ZM5.80397 17.1928C6.00473 17.6767 6.59672 17.8415 7.06517 17.6819C7.61597 17.4966 7.79614 16.9561 7.59538 16.4361C7.14753 15.247 5.2892 15.9471 5.79883 17.1928H5.80397ZM8.66611 18.2842C7.46669 18.8504 8.27488 20.5698 9.52063 20.0292C10.0303 19.8079 10.1487 19.2416 9.94789 18.7629C9.71624 18.2172 9.20662 18.0319 8.66611 18.2893V18.2842ZM10.7973 8.0196C11.3429 7.99901 11.904 7.80855 12.3004 7.42761C13.0314 6.70693 13.6594 5.873 14.4367 5.22954C15.3015 4.514 15.5332 4.71991 16.3156 5.42C17.9526 6.89225 19.4866 8.53437 21.0052 10.1302C21.417 10.5574 22.0245 11.273 22.5444 11.6436C22.7451 11.3553 22.9562 11.0774 23.1518 10.7839C23.4607 10.3206 23.682 9.85219 23.8467 9.32198C24.8711 6.03258 22.9922 2.54242 19.6308 1.69305C17.8908 1.25035 16.3825 1.4614 14.8897 2.47036C14.0352 3.05205 13.227 3.83965 12.5012 4.57063C11.7187 5.36338 10.962 6.18701 10.1692 6.97461C9.96848 7.17538 9.76772 7.37614 9.57211 7.58719C9.2478 7.94239 10.5811 8.02475 10.787 8.0196H10.7973ZM15.2603 6.4444C14.8949 6.779 14.5603 7.15479 14.2205 7.50998C13.7469 8.00931 13.227 8.53952 12.6299 8.88957C11.8474 9.34771 10.9054 9.50215 10.0148 9.36831C9.26839 9.25506 8.32121 8.92045 7.91969 8.23581C7.29167 7.16508 11.2245 3.92201 11.9915 3.14986C11.3944 2.62994 10.7458 2.16664 10.0097 1.86807C9.04189 1.4717 8.04323 1.40992 7.01369 1.55406C5.16051 1.81145 3.4772 2.94909 2.61238 4.62211C1.35119 7.07242 1.78875 9.53303 3.48235 11.6436C3.54412 11.7208 3.73974 11.9782 3.8221 12.0091C4.06404 12.076 4.41923 12.0554 4.68177 12.0915C6.08195 12.2871 6.61217 13.1622 6.66364 14.4388C7.29681 14.444 7.92484 14.5932 8.38813 15.0565C8.85143 15.5198 9.01615 16.1684 9.04189 16.8016C10.648 16.9303 11.2606 17.5841 11.415 19.1696C12.3467 19.185 13.1652 19.5196 13.5359 20.4617C13.6337 20.7087 13.6697 20.9867 13.7057 21.2493C13.7263 21.3831 13.7469 21.589 13.7881 21.7383C14.3749 21.8721 14.9515 21.6662 15.0699 21.0125C15.1986 20.3124 14.3801 19.7049 13.9374 19.2725C13.3402 18.6857 12.7483 18.0937 12.1614 17.5017C11.6775 17.0127 11.1628 16.5648 10.7303 16.0295C10.4936 15.736 10.37 15.2933 10.6377 14.9742C10.926 14.6344 11.3841 14.7477 11.6981 14.9793C11.868 15.1029 11.9967 15.2882 12.1408 15.4426L15.7391 19.0666C16.1509 19.4836 16.7377 19.6123 17.1856 19.1696C17.6386 18.7217 17.5048 18.1143 17.0929 17.687C15.806 16.3486 14.3029 15.2058 13.1395 13.7542C12.8924 13.4453 12.8358 13.0129 13.1498 12.7246C13.4278 12.4672 13.855 12.4981 14.1278 12.7452C14.8228 13.3732 15.4457 14.0939 16.0788 14.7889C16.6811 15.4529 17.3194 16.1376 18.035 16.6729C18.5292 17.0436 19.0594 17.2804 19.5587 16.781C20.0426 16.2971 19.8264 15.7824 19.4712 15.2985C18.9255 14.5469 18.035 13.8314 17.3349 13.2137C16.6502 12.6062 15.7442 11.8083 15.3427 10.9795C15.0338 10.3515 15.6979 9.85734 16.259 10.1868C16.5473 10.3567 16.8613 10.6501 17.1084 10.8817C17.479 11.2318 17.8394 11.5973 18.1894 11.9628C18.8226 12.6165 19.4454 13.3218 20.0941 13.9498C20.3566 14.202 20.9125 14.7065 21.3038 14.6859C21.6281 14.6705 21.9215 14.4543 22.0811 14.1814C22.2612 13.8777 22.2612 13.5328 22.0759 13.2291C21.9884 13.1158 21.8546 12.9923 21.7516 12.8893C21.4839 12.6217 21.2163 12.354 20.9434 12.0863C19.0851 10.2589 17.165 8.4829 15.3839 6.57824C15.3376 6.53191 15.2912 6.48043 15.25 6.4341L15.2603 6.4444Z" fill="#F3F3F3"/>
</svg>
